<?xml version="1.0" encoding="UTF-8"?>
<svg id="Lag_1" data-name="Lag 1" xmlns="http://www.w3.org/2000/svg" viewBox="0 0 567 313.7">
  <defs>
    <style>
      .cls-1 {
        stroke-width: 30px;
      }

      .cls-1, .cls-2 {
        fill: none;
        stroke: #d86a26;
        stroke-miterlimit: 10;
      }

      .cls-3 {
        fill: #d86a26;
        stroke-width: 0px;
      }

      .cls-2 {
        stroke-width: 15px;
      }
    </style>
  </defs>
  <path class="cls-1" d="m283.5,113.6c-21.7,23.2-54.4,52.7-97.8,74.2-49.6,24.5-93.1,28.4-121.9,27.8-16.9-.4-34.3-9.4-43.3-30.1-14.2-33,.8-89.5,25.7-115.9,19-20.1,41-19.8,57.7-18.5,35.4,2.8,97,14.2,179.6,62.6Z"/>
  <path class="cls-1" d="m283.5,117c21.7-23.2,54.4-52.7,97.8-74.2,49.6-24.5,93.1-28.4,121.9-27.8,16.9.4,34.3,9.4,43.3,30.1,14.2,33-.8,89.5-25.7,115.9-19,20.1-41,19.8-57.7,18.5-35.4-2.8-97-14.2-179.6-62.6Z"/>
  <path class="cls-3" d="m281.3,37.4c-1.7-.2-2.8,0-3.2,0-22.8,4.2-35.6,94.5-20.4,130.8,1.6,3.8,4.2,9.9,8.8,11.5,8.9,3.2,13.7-14,24.4-13.4,10.1.5,13.9,16.3,22.1,13.8,4.8-1.5,7.5-7.9,8.8-10.9,14.9-34.6-12.5-127.8-40.5-131.9Z"/>
  <g>
    <path class="cls-1" d="m266.1,143.6s-87.6,105.1-111.2,144.1"/>
    <line class="cls-2" x1="138.1" y1="309.6" x2="159.5" y2="277"/>
  </g>
  <g>
    <path class="cls-1" d="m314.8,137.1s87.6,105.1,111.2,144.1"/>
    <line class="cls-2" x1="441.5" y1="303.2" x2="420.1" y2="270.5"/>
  </g>
</svg>